<svg version="1.2" xmlns="http://www.w3.org/2000/svg" viewBox="0 0 1000 1000" width="1000" height="1000"><style></style><path fill-rule="evenodd" d="m500.4 0c-276.7 0-500.4 229-500.4 512.3 0 226.5 143.3 418.2 342.2 486.1 24.8 5.1 33.9-11.1 33.9-24.6 0-11.9-0.8-52.6-0.8-95-139.2 30.5-168.2-61.1-168.2-61.1-22.3-59.4-55.5-74.7-55.5-74.7-45.6-31.3 3.3-31.3 3.3-31.3 50.6 3.4 77.1 52.6 77.1 52.6 44.7 78 116.8 55.9 145.8 42.4 4.1-33.1 17.4-56 31.5-68.7-111-11.9-227.9-56-227.9-252.8 0-56 19.9-101.8 51.4-137.4-5-12.7-22.4-65.3 5-135.7 0 0 42.2-13.6 137.5 52.5q15.3-4.2 30.8-7.3 15.5-3.2 31.2-5.3 15.7-2.2 31.5-3.2 15.8-1.1 31.6-1.1c42.3 0 85.3 5.9 125.1 16.9 95.3-66.1 137.5-52.5 137.5-52.5 27.4 70.4 10 123 5 135.7 32.3 35.6 51.4 81.4 51.4 137.4 0 196.8-116.8 240-228.7 252.8 18.3 16.1 34 46.6 34 95 0 68.7-0.8 123.8-0.8 140.8 0 13.5 9.1 29.7 33.9 24.6 198.9-67.9 342.2-259.6 342.2-486.1 0.8-283.3-223.7-512.3-499.6-512.3z"/></svg>