<svg version="1.2" xmlns="http://www.w3.org/2000/svg" viewBox="0 0 1090 1042" width="1090" height="1042"><defs><linearGradient id="P" gradientUnits="userSpaceOnUse"/><linearGradient id="g1" x2="1" href="#P" gradientTransform="matrix(1090,0,0,1041.618,0,521)"><stop stop-color="#66abf1"/><stop offset="1" stop-color="#6b00bc"/></linearGradient></defs><style>.a{fill:url(#g1)}</style><path class="a" d="m1087.5 394.3c-1.5-4.8-3.9-9.4-6.9-13.6-3-4.1-6.6-7.7-10.8-10.7-4.1-3-8.7-5.4-13.6-7-4.9-1.5-10-2.3-15.1-2.3h-343.5l-106.2-326.8c-3.2-9.8-9.5-18.4-17.8-24.4-8.4-6.1-18.4-9.3-28.7-9.3-10.3 0-20.4 3.3-28.7 9.4-8.3 6.1-14.5 14.7-17.6 24.5l-106.3 326.6h-343.5c-10.3 0-20.3 3.3-28.7 9.3-8.3 6.1-14.5 14.7-17.7 24.5-3.1 9.8-3.1 20.3 0 30.1 3.2 9.8 9.4 18.3 17.8 24.4l277.8 202-106.1 326.8c-3.2 9.8-3.3 20.4-0.1 30.2 3.2 9.8 9.4 18.3 17.7 24.4 8.3 6.1 18.4 9.4 28.7 9.4 10.3 0 20.4-3.3 28.7-9.3l278.1-202 277.9 201.9c8.4 6.1 18.4 9.3 28.7 9.3 10.4 0 20.4-3.3 28.8-9.4 8.3-6 14.5-14.6 17.7-24.4 3.1-9.8 3.1-20.4-0.1-30.2l-106.2-326.7 278.1-202 0.2-0.2c4.1-3 7.7-6.7 10.7-10.8 3-4.2 5.3-8.7 6.9-13.6 1.5-4.9 2.3-9.9 2.3-15.1 0-5.1-0.9-10.1-2.5-15z"/></svg>