<svg version="1.2" xmlns="http://www.w3.org/2000/svg" viewBox="0 0 1000 1000" width="1000" height="1000"><style></style><path fill-rule="evenodd" d="m0.5 62.1c0 8.1 1.8 16.1 5.1 23.6 3.3 7.5 8.1 14.2 14.2 19.9 6.1 5.7 13.3 10.2 21.3 13.3 7.9 3.1 16.4 4.6 25 4.6h543.4c179.4-11.5 289.4 205 153 319.7q-60 48.7-153 48.6h-236c-17.7-0.6-34.8 5.6-47.5 17.2-12.7 11.5-19.9 27.5-19.9 44.2 0 16.7 7.2 32.7 19.9 44.3 12.7 11.6 29.8 17.8 47.5 17.1 8.2 0 262.9 0 260.8 0l234.9 353c3.1 4.9 6.9 9.5 11.3 13.5 4.4 4.1 9.4 7.5 14.7 10.3 5.4 2.8 11.1 4.9 17 6.3 6 1.4 12.1 2 18.2 1.9 59.9 1.9 87.4-56.9 54.6-102.4l-208.9-314.3c326.1-144.9 188.3-595.2-166.7-581.9h-543.3c-8.6-0.1-17 1.5-25 4.5-7.9 3.1-15.1 7.6-21.2 13.2-6 5.7-10.9 12.4-14.2 19.9-3.4 7.4-5.1 15.4-5.2 23.5z"/></svg>