<svg version="1.2" xmlns="http://www.w3.org/2000/svg" viewBox="0 0 976 642" width="976" height="642"><style></style><path  d="m750.9 0.3v17.1q-33.8 6-51.2 21.3c-16.6 15.1-36.2 38.2-49.1 69.3l-261.4 533.7h-17.4l-262.5-540.6c-12.3-27.8-28.9-44.7-33.9-50.9q-11.8-14.3-28.9-22.4-17.2-8.1-46.3-10.4v-17.1h255.4v17.1c-29.5 2.8-43.5 7.7-52.3 14.8q-13.2 10.6-13.2 27.3 0 23.1 21.7 72.1l193.8 367.7 189.6-363.1c14.7-35.7 26.9-60.5 26.9-74.4q0-13.4-13.6-25.7c-9.1-8.2-19.4-13.9-41-17.3q-2.4-0.5-8-1.4v-17.1z"/><path  d="m975.8 0.3v17.1q-33.8 6-51.2 21.3c-16.6 15.1-36.2 38.2-49.1 69.3l-229.5 533.7h-17.4l-242.5-540.6c-12.2-27.8-28.8-44.7-33.8-50.9q-11.8-14.3-28.9-22.4c-11.5-5.4-21.8-8.9-41.3-10.4v-17.1h250.4v17.1c-29.5 2.8-43.5 7.7-52.3 14.8q-13.2 10.6-13.2 27.3 0 23.1 21.6 72.1l173.9 367.7 157.5-363.1c14.8-35.7 27-60.5 27-74.4q0-13.4-13.6-25.7-13.7-12.2-46.1-17.3-2.4-0.5-8-1.4v-17.1z"/></svg>