<svg version="1.2" xmlns="http://www.w3.org/2000/svg" viewBox="0 0 800 564" width="800" height="564"><style>.a{fill:#f00}</style><path fill-rule="evenodd" class="a" d="m800 251.5v60.7c0 64.8-8 129.5-8 129.5 0 0-7.8 55.1-31.8 79.4-30.4 31.8-64.5 32-80.2 33.9-111.9 8.1-280 8.3-280 8.3 0 0-208-1.9-272-8-17.8-3.4-57.8-2.3-88.2-34.2-24-24.3-31.8-79.4-31.8-79.4 0 0-8-64.8-8-129.5v-60.7c0-64.7 8-129.5 8-129.5 0 0 7.8-55.1 31.8-79.4 30.4-31.8 64.5-32 80.1-33.8 112-8.1 279.9-8.1 279.9-8.1h0.4c0 0 167.9 0 279.8 8.1 15.7 1.8 49.8 2 80.2 33.8 24 24.3 31.8 79.4 31.8 79.4 0 0 8 64.8 8 129.5zm-266.5 22.3l-216.1-112.8v224.8z"/></svg>